<svg xmlns="http://www.w3.org/2000/svg" version="1.1" xmlns:xlink="http://www.w3.org/1999/xlink" xmlns:svgjs="http://svgjs.dev/svgjs" width="1000" height="750" viewBox="0 0 1000 750"><rect width="1000" height="750" fill="#000000"></rect><g transform="matrix(0.5191111111111111,0,0,0.5191111111111111,240.4444444444445,83)"><svg viewBox="0 0 320 360" data-background-color="#dedede" preserveAspectRatio="xMidYMid meet" height="1125" width="1000" xmlns="http://www.w3.org/2000/svg" xmlns:xlink="http://www.w3.org/1999/xlink"><g id="tight-bounds" transform="matrix(1,0,0,1,0,0)"><svg viewBox="0 0 320 360" height="360" width="320"><g><svg></svg></g><g><svg viewBox="0 0 320 360" height="360" width="320"><g><path xmlns="http://www.w3.org/2000/svg" d="M20.961 227.22l3.726 4.658-1.863-6.056c-0.466-2.795-3.726 0.466-1.863 1.398M25.153 224.425c1.397 2.329 2.795 4.658 2.795 6.987 0 3.261 2.795 4.658 5.123 5.589-3.261-3.726-5.124-13.974-7.918-12.576M204.017 26.929c7.918 0 15.371-0.932 23.756 0.931 20.495 5.124 37.729 15.371 49.374 29.811l32.606 52.169c1.397 13.042 4.192 27.482 3.726 43.319 3.261 0 2.795-4.658 6.521-5.59-3.726 9.316-5.59 20.961-6.521 34.469-2.329-7.453 0-18.632 0.466-24.687-3.261 5.124-5.124 1.397-5.124-0.932 0.466-3.726-1.397-3.261-2.795-4.658-5.124-4.658-8.384-9.782-12.11-17.7 2.329-6.055 2.795-14.905-4.658-19.563-2.329-1.397-5.124-3.726-6.521-7.453-1.863-5.124-5.124-11.179-4.193-19.097 0.466-2.329-6.987 5.124-11.179 1.863-18.166-12.576-36.332-27.016-58.224-39.127-11.645 0-20.029-4.192-24.221-9.316-3.726-4.658-0.932-10.713 4.658-11.179 3.261 0 6.987-0.932 9.782 0.932 0.466-1.863 2.329-4.192 4.657-4.192M157.904 16.215l0.932 0.466c4.658 0.932 6.987 7.453 12.11 5.124 0 3.261 0.466 6.521-0.466 8.85-1.397 3.726-5.59 3.726-8.85 3.726-31.208-1.863-49.374 11.179-68.471 22.358-5.124 3.261-10.713 5.59-14.906 9.782-20.029 18.632-41.921 35.866-47.045 70.335l-4.192 38.195c-0.466 4.192-5.124 8.384-4.192 13.508l3.26 22.824c-3.261-3.261-5.124 0.932-4.192 2.795 0.466 1.397 2.329 6.055 5.124 1.863 3.726 6.987 7.453 20.495 12.576 26.55 15.837 18.632 36.332 35.4 53.101 52.169 4.192-0.932 7.453-0.932 8.384-3.727 1.397 2.795-1.397 5.59-3.726 6.056 7.453 4.658 15.837 8.85 27.016 9.781 14.44 0.932 27.948 3.261 40.524 6.522 6.521-1.863 13.042-2.795 20.029-3.261 2.329 0 3.726-3.726 6.521-4.658l0.466-4.658c2.795 4.192 2.329-1.397 0.466-4.192 3.261 2.795 4.192 5.124 5.589 6.987 0-1.397 3.726-6.521 3.727-0.466l0.931-6.055c1.397-0.932 1.863 5.124 3.261 0.931 1.397-4.192 4.192-0.932 6.987-2.329-0.932 1.863-0.466 5.59 2.794 3.261l3.727-3.261c2.329 5.59 6.055 3.261 7.918 2.329 20.495-13.042 40.99-28.413 60.553-43.784l-0.466 6.055 2.329-7.453c2.329 2.329 4.192 0.466 5.124-0.931 2.795-4.658 6.521-9.316 12.577-13.508-7.453 20.029-16.303 35.866-27.482 48.908l-4.658 5.59c0 3.261-0.932 7.453-4.658 7.918-1.863 0.466-5.59-0.932-8.384 1.863-1.397 1.863 3.261 5.59-0.466 2.795-3.261-2.329-6.521 0-10.248 0.932-2.795 0.932 1.863 3.726 2.795 5.589 0.932 1.863 1.863 3.726 1.398 6.056l-5.124-5.59c-6.055 3.261-9.782 9.316-14.906 13.974-2.329 1.863-1.397 5.124-1.397 7.918-3.261 0-6.987-0.932-8.85 0.932-1.397 1.863-0.932 4.658-0.932 7.453-4.658-0.466-5.124-7.453-9.315-6.056-4.192 0.932-8.85 1.397-12.577 3.727 2.795 5.59-4.658 2.329-3.726 3.26-6.987-4.192-13.042-7.453-20.495-4.658-15.837-5.124-35.4-2.795-49.84-0.931 0-2.329 0.466-4.658-0.466-5.124-0.932 2.329-3.726 1.397-3.26 1.397-8.85-6.055-17.7-9.782-27.016-14.905-8.384 0.932-16.303-3.261-18.632-5.59-6.521-6.055-13.974-2.795-20.029-4.192-13.042-3.261-17.7-16.769-19.098-26.084-0.932-4.658-4.658-6.521-6.055-6.056-6.055-19.563-15.371-37.263-22.824-55.429-1.863-4.658-1.397-9.316-1.397-14.44 2.329 0.932 4.658 0.466 4.192-2.794-2.329-15.371-7.918-27.016-13.974-38.195 3.261-15.837 3.726-34.469 11.179-48.443 6.521-12.576 18.632-19.098 27.016-29.811 2.795-3.726 2.795-8.85 5.59-12.11 9.316-9.316 18.632-19.098 28.879-27.482 4.658-3.726 10.247 0 17.234-1.397 2.329-8.384 11.645-15.837 20.495-13.508 3.726 0.932 11.179-8.85 13.508-9.782 3.726-1.397 1.863 3.726 1.863 6.987 8.85-6.987 20.961-10.713 32.14-14.906" fill="#ffffff" fill-rule="nonzero" stroke="none" stroke-width="1" stroke-linecap="butt" stroke-linejoin="miter" stroke-miterlimit="10" stroke-dasharray="" stroke-dashoffset="0" font-family="none" font-weight="none" font-size="none" text-anchor="none" style="mix-blend-mode: normal" data-fill-palette-color="tertiary"></path></g><g transform="matrix(1,0,0,1,113.78336258925584,90)"><svg viewBox="0 0 92.43327482148831 180" height="180" width="92.43327482148831"><g><svg viewBox="0 0 92.43327482148831 180" height="180" width="92.43327482148831"><g><svg viewBox="0 0 155.1822503961965 302.1942598621609" height="180" width="92.43327482148831"><g transform="matrix(1,0,0,1,0,122.19425986216089)"><svg viewBox="0 0 155.1822503961965 180" height="180" width="155.1822503961965"><g id="textblocktransform"><svg viewBox="0 0 155.1822503961965 180" height="180" width="155.1822503961965" id="textblock"><g><svg viewBox="0 0 155.1822503961965 180" height="180" width="155.1822503961965"><g transform="matrix(1,0,0,1,0,0)"><svg width="155.1822503961965" viewBox="0.800000011920929 -31.549999237060547 27.200000762939453 31.549999237060547" height="180" data-palette-color="#374151"><path d="M28-29.35Q28-28.45 26.45-26.7L26.45-26.7Q24.6-24.6 16.8-13.8L16.8-13.8Q16.9-7.35 17.2-4.95L17.2-4.95Q17.35-3.45 17.35-2.8L17.35-2.8Q17.35-1.15 16.78-0.58 16.2 0 14.8 0L14.8 0Q13.75 0 12.83-0.63 11.9-1.25 11.9-2.15L11.9-2.15Q11.9-5.8 11.75-12.85L11.75-12.85Q11.75-13.15 11.35-13.85 10.95-14.55 10.85-14.75L10.85-14.75Q9.8-16.6 8.22-18.88 6.65-21.15 5.5-22.3L5.5-22.3Q3.3-24.5 2.05-26.28 0.8-28.05 0.8-28.8L0.8-28.8Q0.8-29.85 1.78-30.48 2.75-31.1 3.9-31.1L3.9-31.1Q4.55-31.1 5.28-30.75 6-30.4 6.45-29.75L6.45-29.75Q9.4-25.35 11.7-22.45L11.7-22.45 14.05-19.4Q16.2-21.6 17.82-23.78 19.45-25.95 21.4-28.95L21.4-28.95 22.25-30.25Q23.2-31.55 25.2-31.55L25.2-31.55Q26.15-31.55 27.08-31 28-30.45 28-29.35L28-29.35Z" opacity="1" transform="matrix(1,0,0,1,0,0)" fill="#ffffff" class="undefined-text-0" data-fill-palette-color="primary" id="text-0"></path></svg></g></svg></g></svg></g></svg></g><g transform="matrix(1,0,0,1,29.63980982567353,0)"><svg viewBox="0 0 95.90263074484945 95.9279398621609" height="95.9279398621609" width="95.90263074484945"><g><svg xmlns="http://www.w3.org/2000/svg" xmlns:xlink="http://www.w3.org/1999/xlink" version="1.1" x="0" y="0" viewBox="5.825961112976074 5.81397819519043 88.3480453491211 88.3713607788086" enable-background="new 0 0 100 100" xml:space="preserve" height="95.9279398621609" width="95.90263074484945" class="icon-icon-0" data-fill-palette-color="accent" id="icon-0"><path fill-rule="evenodd" clip-rule="evenodd" d="M47.798 94.18c0.727 0.011 1.461 0.005 2.202-0.018 0.945-0.03 1.885-0.03 2.879-0.027l0.063-37.278c0-3.007 0.435-5.587 1.87-8.072 1.03 2.564 1.608 5.378 1.601 8.335l-0.025 36.586C77.7 90.6 94.174 72.156 94.174 49.988c0-7.721-1.999-14.99-5.503-21.338L65.442 42.008c-2.097 1.206-4.146 3.038-5.711 5.215-0.39-1.015-0.812-1.935-1.269-2.828 1.029-0.903 2.103-1.782 3.204-2.423l25.933-15.103c-0.895-1.465-1.929-2.867-2.967-4.226L59.134 37.533c-1.258 0.735-2.397 1.722-3.469 2.676-0.519-0.744-1.125-1.44-1.683-2.079 0.604-0.283 1.136-0.573 1.55-0.812L83.44 21.17C75.347 11.788 63.348 5.828 50 5.814 36.593 5.801 24.757 11.577 16.497 21.13l27.832 16.129c0.524 0.336 1.072 0.648 1.702 0.914-0.528 0.588-1.123 1.275-1.656 2.061-1.109-0.934-2.345-1.827-3.439-2.64L15.252 22.567c-0.955 1.371-1.941 2.772-2.801 4.313l25.777 15.053c1.12 0.758 2.243 1.559 3.315 2.451-0.451 0.944-0.904 1.928-1.274 2.986-1.529-2.256-3.616-4.122-6.072-5.546L11.35 28.578c-3.528 6.284-5.534 13.617-5.524 21.41 0.028 22.272 15.27 41.058 38.006 43.891l0.238-36.471c-0.017-2.96 0.01-6.121 0.996-8.751 1.434 2.477 2.681 5.668 2.718 8.751v36.734M52.677 32.995l22.314-12.921C68.229 14.4 59.502 10.973 50 10.973c-9.474 0-18.189 3.428-24.999 9.097l22.323 12.947c0.836 0.508 1.738 1.069 2.657 1.679C50.9 34.087 51.802 33.525 52.677 32.995L52.677 32.995zM32.474 46.825L13.659 35.972c-1.71 4.373-2.57 8.046-2.582 13.008-0.043 17.627 11.778 32.588 27.862 37.347l-0.028-29.103C38.911 52.683 36.25 49.003 32.474 46.825L32.474 46.825zM67.195 46.994l19.23-11.093c1.677 4.339 2.635 8.129 2.681 13.079 0.161 17.388-11.997 32.032-27.616 37.168l0.063-28.336C61.553 53.271 63.711 49.003 67.195 46.994L67.195 46.994zM47.661 43.785c0.724-0.864 1.458-1.7 2.298-2.387 0.757 0.864 1.452 1.698 2.162 2.558-0.793 1.138-1.544 2.382-2.169 3.695C49.295 46.272 48.502 44.969 47.661 43.785L47.661 43.785zM49.72 14.832c4.373 0 7.94 3.567 7.94 7.94s-3.567 7.94-7.94 7.94-7.94-3.567-7.94-7.94S45.346 14.832 49.72 14.832L49.72 14.832z" fill="#ffffff" data-fill-palette-color="accent"></path></svg></g></svg></g><g></g></svg></g></svg></g></svg></g></svg></g><defs></defs></svg><rect width="320" height="360" fill="none" stroke="none" visibility="hidden"></rect></g></svg></g></svg>